<svg width="100" height="35" viewBox="0 0 100 35" fill="none" xmlns="http://www.w3.org/2000/svg">
<path d="M4.34548 10.7533H9.89594V29.9112H4.34548V10.7533ZM7.09778 8.12829C6.0886 8.12829 5.26291 7.85198 4.62071 7.2533C3.97851 6.65461 3.65741 5.91777 3.65741 5.04277C3.65741 4.16777 3.97851 3.43093 4.62071 2.83224C5.26291 2.23356 6.0886 1.95724 7.09778 1.95724C8.10695 1.95724 8.93264 2.23356 9.57484 2.83224C10.217 3.38487 10.5381 4.12172 10.5381 4.95067C10.5381 5.87172 10.217 6.65461 9.57484 7.2533C8.93264 7.80593 8.10695 8.12829 7.09778 8.12829Z" fill="black"/>
<path d="M33.3395 10.7533V29.9112H28.1101V27.6085C27.3761 28.4375 26.5046 29.0822 25.4954 29.4967C24.4862 29.9572 23.3853 30.1414 22.1927 30.1414C19.6697 30.1414 17.6972 29.4046 16.2294 27.977C14.7615 26.5033 14.0275 24.3848 14.0275 21.5296V10.7072H19.578V20.7006C19.578 23.7862 20.8624 25.352 23.4312 25.352C24.7615 25.352 25.8165 24.9375 26.6422 24.0625C27.4679 23.1875 27.8349 21.898 27.8349 20.1941V10.7072H33.3395V10.7533Z" fill="black"/>
<path d="M68.2446 10.7533L61.318 29.9112H55.9969L51.685 18.0296L47.2355 29.9112H41.9144L35.0336 10.7533H40.263L44.7584 23.6941L49.4373 10.7533H54.1621L58.7034 23.6941L63.3364 10.7533H68.2446Z" fill="black"/>
<path d="M88.654 20.4243C88.654 20.5164 88.6081 20.977 88.5623 21.898H74.1127C74.3879 23.0954 74.9843 24.0164 75.9476 24.7072C76.9109 25.398 78.1494 25.7204 79.5714 25.7204C80.5806 25.7204 81.4522 25.5822 82.232 25.2599C83.0118 24.9375 83.6999 24.477 84.3879 23.8322L87.3237 27.0559C85.5347 29.1283 82.9201 30.1414 79.4338 30.1414C77.2779 30.1414 75.3971 29.727 73.7457 28.852C72.0944 28.023 70.81 26.8257 69.8925 25.352C68.9751 23.8783 68.5623 22.1743 68.5623 20.2401C68.5623 18.352 69.021 16.6941 69.8925 15.1743C70.7641 13.6546 72.0026 12.5033 73.5623 11.6283C75.1219 10.7993 76.865 10.3388 78.7457 10.3388C80.6265 10.3388 82.3237 10.7533 83.8375 11.5362C85.3512 12.3651 86.5439 13.5164 87.4155 14.9901C88.2412 16.6941 88.654 18.4441 88.654 20.4243ZM78.7457 14.6678C77.5072 14.6678 76.4522 15.0362 75.5806 15.727C74.7549 16.4178 74.2045 17.4309 74.021 18.6283H83.4246C83.2412 17.4309 82.6907 16.4638 81.865 15.727C81.0393 15.0362 79.9843 14.6678 78.7457 14.6678Z" fill="black"/>
<path d="M93.5373 30.2335C92.574 30.2335 91.7483 29.9112 91.1061 29.2204C90.4639 28.5757 90.0969 27.7467 90.0969 26.7336C90.0969 25.7204 90.418 24.8914 91.1061 24.2467C91.7483 23.602 92.574 23.3257 93.5373 23.3257C94.5006 23.3257 95.3263 23.648 95.9685 24.2467C96.6107 24.8914 96.9777 25.7204 96.9777 26.7336C96.9777 27.7467 96.6566 28.5757 95.9685 29.2204C95.3263 29.9112 94.5006 30.2335 93.5373 30.2335Z" fill="black"/>
</svg>
