<svg width="94" height="29" viewBox="0 0 94 29" fill="none" xmlns="http://www.w3.org/2000/svg">
<path d="M0.688073 8.79606H6.23853V27.9539H0.688073V8.79606ZM3.44037 6.17105C2.43119 6.17105 1.6055 5.89474 0.963302 5.29605C0.3211 4.69737 0 3.96052 0 3.08553C0 2.21053 0.3211 1.47368 0.963302 0.874997C1.6055 0.276313 2.43119 0 3.44037 0C4.44954 0 5.27523 0.276313 5.91743 0.874997C6.55963 1.42763 6.88073 2.16447 6.88073 2.99342C6.88073 3.91447 6.55963 4.69737 5.91743 5.29605C5.27523 5.84868 4.44954 6.17105 3.44037 6.17105Z" fill="white"/>
<path d="M29.682 8.79606V27.9539H24.4527V25.6513C23.7187 26.4803 22.8472 27.125 21.838 27.5395C20.8288 28 19.7279 28.1842 18.5353 28.1842C16.0123 28.1842 14.0398 27.4474 12.5719 26.0197C11.1041 24.5461 10.3701 22.4276 10.3701 19.5724V8.75H15.9206V18.7434C15.9206 21.8289 17.205 23.3947 19.7738 23.3947C21.1041 23.3947 22.1591 22.9803 22.9848 22.1053C23.8105 21.2303 24.1775 19.9408 24.1775 18.2368V8.75H29.682V8.79606Z" fill="white"/>
<path d="M64.5872 8.79614L57.6606 27.954H52.3395L48.0276 16.0725L43.5781 27.954H38.257L31.3762 8.79614H36.6056L41.101 21.7369L45.7799 8.79614H50.5047L55.0459 21.7369L59.679 8.79614H64.5872Z" fill="white"/>
<path d="M84.9966 18.4671C84.9966 18.5592 84.9507 19.0198 84.9048 19.9408H70.4553C70.7305 21.1382 71.3269 22.0592 72.2902 22.75C73.2535 23.4408 74.492 23.7632 75.914 23.7632C76.9232 23.7632 77.7948 23.625 78.5746 23.3026C79.3544 22.9803 80.0425 22.5198 80.7305 21.875L83.6663 25.0987C81.8773 27.1711 79.2626 28.1842 75.7764 28.1842C73.6204 28.1842 71.7397 27.7697 70.0883 26.8947C68.437 26.0658 67.1526 24.8684 66.2351 23.3948C65.3177 21.9211 64.9048 20.2171 64.9048 18.2829C64.9048 16.3947 65.3636 14.7369 66.2351 13.2171C67.1067 11.6974 68.3452 10.5461 69.9048 9.67107C71.4645 8.84212 73.2076 8.38159 75.0883 8.38159C76.9691 8.38159 78.6663 8.79607 80.1801 9.57896C81.6938 10.4079 82.8865 11.5592 83.7581 13.0329C84.5837 14.7369 84.9966 16.4869 84.9966 18.4671ZM75.0883 12.7105C73.8498 12.7105 72.7948 13.079 71.9232 13.7697C71.0975 14.4605 70.547 15.4737 70.3636 16.6711H79.7672C79.5837 15.4737 79.0333 14.5066 78.2076 13.7697C77.3819 13.079 76.3269 12.7105 75.0883 12.7105Z" fill="white"/>
<path d="M89.8799 28.2763C88.9166 28.2763 88.0909 27.9539 87.4487 27.2631C86.8065 26.6184 86.4395 25.7895 86.4395 24.7763C86.4395 23.7631 86.7606 22.9342 87.4487 22.2895C88.0909 21.6447 88.9166 21.3684 89.8799 21.3684C90.8432 21.3684 91.6689 21.6908 92.3111 22.2895C92.9533 22.9342 93.3202 23.7631 93.3202 24.7763C93.3202 25.7895 92.9991 26.6184 92.3111 27.2631C91.6689 27.9539 90.8432 28.2763 89.8799 28.2763Z" fill="white"/>
</svg>
