<?xml version="1.0" encoding="utf-8"?>
<!-- Generator: Adobe Illustrator 28.2.0, SVG Export Plug-In . SVG Version: 6.00 Build 0)  -->
<svg version="1.1" id="Group_181" xmlns="http://www.w3.org/2000/svg" xmlns:xlink="http://www.w3.org/1999/xlink" x="0px" y="0px"
	 viewBox="0 0 19.7 19.7" style="enable-background:new 0 0 19.7 19.7;" xml:space="preserve">
<style type="text/css">
	.st0{fill:#FFFFFF;}
</style>
<path id="Path_127" class="st0" d="M14,19.7H5.7C2.6,19.7,0,17.2,0,14V5.7C0,2.6,2.6,0,5.7,0H14c3.2,0,5.7,2.6,5.7,5.7V14
	C19.7,17.2,17.2,19.7,14,19.7 M5.7,1.7c-2.2,0-4,1.8-4,4V14c0,2.2,1.8,4,4,4H14c2.2,0,4-1.8,4-4V5.7c0-2.2-1.8-4-4-4L5.7,1.7z"/>
<path id="Path_128" class="st0" d="M9.9,14.9c-2.8,0-5-2.3-5-5s2.3-5,5-5s5,2.3,5,5l0,0C14.9,12.6,12.6,14.9,9.9,14.9 M9.9,6.5
	C8,6.5,6.5,8,6.5,9.9s1.5,3.3,3.3,3.3s3.3-1.5,3.3-3.3l0,0C13.2,8,11.7,6.5,9.9,6.5"/>
<path id="Path_129" class="st0" d="M16.3,4.6c0-0.7-0.5-1.2-1.2-1.2c-0.7,0-1.2,0.5-1.2,1.2s0.5,1.2,1.2,1.2S16.3,5.3,16.3,4.6
	L16.3,4.6"/>
</svg>
