<?xml version="1.0" encoding="utf-8"?>
<!-- Generator: Adobe Illustrator 28.2.0, SVG Export Plug-In . SVG Version: 6.00 Build 0)  -->
<svg version="1.1" id="Group_180" xmlns="http://www.w3.org/2000/svg" xmlns:xlink="http://www.w3.org/1999/xlink" x="0px" y="0px"
	 viewBox="0 0 21 21" style="enable-background:new 0 0 21 21;" xml:space="preserve">
<style type="text/css">
	.st0{fill:#FFFFFF;}
</style>
<g>
	<rect id="Rectangle_174" x="0.3" y="6.9" class="st0" width="4.4" height="14"/>
	<path id="Path_132" class="st0" d="M16.6,6.6c-0.2,0-0.3,0-0.5,0c-1.7-0.1-3.3,0.7-4.3,2c-0.1,0.1-0.1,0.2-0.2,0.3V6.9H7.4v14h4.4
		v-6.6c-0.1-1,0-1.9,0.4-2.8c0.4-0.7,1.1-1.1,2-1.1c1.3-0.1,2.4,0.9,2.5,2.2c0,0.1,0,0.2,0,0.2V21H21v-9.1C21,8.7,19.4,6.9,16.6,6.6
		"/>
	<g id="Group_178">
		<path id="Path_133" class="st0" d="M5.1,2.5C5.1,4,4,5.1,2.5,5.1C1.1,5.1,0,4,0,2.5C0,1.1,1.1,0,2.5,0C4,0,5.1,1.1,5.1,2.5
			C5.1,2.5,5.1,2.5,5.1,2.5"/>
	</g>
</g>
</svg>
