<?xml version="1.0" encoding="utf-8"?>
<!-- Generator: Adobe Illustrator 27.5.0, SVG Export Plug-In . SVG Version: 6.00 Build 0)  -->
<svg version="1.1" id="Layer_1" xmlns="http://www.w3.org/2000/svg" xmlns:xlink="http://www.w3.org/1999/xlink" x="0px" y="0px"
	 viewBox="0 0 256 256" style="enable-background:new 0 0 256 256;" xml:space="preserve">
<style type="text/css">
	.st0{fill:#FFFFFF;}
	.st1{fill:#221F1F;}
	.st2{fill:#FBBA16;}
</style>
<g>
	<path class="st1" d="M208.23,105.56H193.4V71.68c0-36.87-29.1-66.87-64.88-66.87h-1.05c-35.77,0-64.88,30-64.88,66.87v33.88H47.75
		c-9.68,0-17.52,8.7-17.52,19.42v106.78c0,10.73,7.84,19.42,17.52,19.42h160.48c9.68,0,17.52-8.7,17.52-19.42V124.99
		C225.75,114.26,217.91,105.56,208.23,105.56z M88.04,71.68c0-22.83,17.68-41.41,39.42-41.41h1.05c21.74,0,39.42,18.57,39.42,41.41
		v33.88H88.04V71.68z M140.97,207.21h-26.99l7.03-29.76c-4.49-2.4-7.54-7.13-7.54-12.58c0-7.87,6.38-14.26,14.26-14.26
		c7.87,0,14.26,6.38,14.26,14.26c0,5.63-3.26,10.49-7.99,12.81L140.97,207.21z"/>
</g>
</svg>
