<?xml version="1.0" standalone="no"?>
<!DOCTYPE svg PUBLIC "-//W3C//DTD SVG 20010904//EN"
 "http://www.w3.org/TR/2001/REC-SVG-20010904/DTD/svg10.dtd">
<svg version="1.0" xmlns="http://www.w3.org/2000/svg"
 width="126.000000pt" height="126.000000pt" viewBox="0 0 126.000000 126.000000"
 preserveAspectRatio="xMidYMid meet">

<g transform="translate(0.000000,126.000000) scale(0.100000,-0.100000)"
fill="#000000" stroke="none">
<path d="M580 880 c-41 -41 -13 -100 48 -100 36 0 72 30 72 60 0 29 -36 60
-70 60 -17 0 -39 -9 -50 -20z"/>
<path d="M570 530 l0 -191 58 3 57 3 3 188 2 187 -60 0 -60 0 0 -190z"/>
<path d="M776 448 c-21 -30 -20 -61 2 -89 39 -47 122 -16 122 45 0 59 -92 91
-124 44z"/>
</g>
</svg>
